<?xml version="1.0" standalone="no"?><!DOCTYPE svg PUBLIC "-//W3C//DTD SVG 1.1//EN" "http://www.w3.org/Graphics/SVG/1.1/DTD/svg11.dtd"><svg t="1499882367338" class="icon" style="" viewBox="0 0 1024 1024" version="1.1" xmlns="http://www.w3.org/2000/svg" p-id="3136" xmlns:xlink="http://www.w3.org/1999/xlink" width="128" height="128"><defs><style type="text/css"></style></defs><path d="M751.626078 271.497461 405.991106 407.766031 269.722536 753.397932l345.627808-136.2655L751.626078 271.497461 751.626078 271.497461zM487.441163 535.675212c-12.827143-12.82612-12.827143-33.626865 0-46.451962 12.833283-12.827143 33.624818-12.833283 46.458101 0 12.82612 12.825097 12.82612 33.624818 0 46.451962C521.074168 548.508495 500.274446 548.508495 487.441163 535.675212L487.441163 535.675212zM487.441163 535.675212" fill="#fafafa" p-id="3137"></path><path d="M510.671237 65.164139c-247.029186 0-447.283046 200.251813-447.283046 447.287139 0 247.02714 200.252837 447.283046 447.283046 447.283046 247.026116 0 447.288163-200.254883 447.288163-447.283046C957.9594 265.416975 757.697353 65.164139 510.671237 65.164139L510.671237 65.164139zM510.671237 904.125819c-216.319767 0-391.676587-175.354773-391.676587-391.68068 0-216.317721 175.357843-391.681704 391.676587-391.681704 216.32386 0 391.681704 175.363983 391.681704 391.681704C902.352941 728.771045 726.995097 904.125819 510.671237 904.125819L510.671237 904.125819zM510.671237 904.125819" fill="#fafafa" p-id="3138"></path></svg>