<?xml version="1.0" standalone="no"?><!DOCTYPE svg PUBLIC "-//W3C//DTD SVG 1.1//EN" "http://www.w3.org/Graphics/SVG/1.1/DTD/svg11.dtd"><svg t="1499882573314" class="icon" style="" viewBox="0 0 1024 1024" version="1.1" xmlns="http://www.w3.org/2000/svg" p-id="4749" xmlns:xlink="http://www.w3.org/1999/xlink" width="128" height="128"><defs><style type="text/css"></style></defs><path d="M233.35936 460.43136c-59.331584 0-107.444224 48.086016-107.444224 107.377664l0 289.577984c0 59.358208 48.11264 107.437056 107.444224 107.437056l248.777728 0-164.41344-504.392704L233.35936 460.43136z" p-id="4750" fill="#fafafa"></path><path d="M785.732608 460.43136l-84.272128 0L537.1136 964.825088l248.619008 0c59.32544 0 107.437056-48.078848 107.437056-107.437056L893.169664 567.810048C893.170688 508.517376 845.058048 460.43136 785.732608 460.43136zM812.25728 797.771776 676.328448 797.771776c-8.283136 0-15.021056-6.771712-15.021056-15.086592 0-8.249344 6.73792-15.014912 15.021056-15.014912l135.928832 0c8.308736 0 15.014912 6.764544 15.014912 15.014912C827.272192 791.000064 820.56704 797.771776 812.25728 797.771776z" p-id="4751" fill="#fafafa"></path><path d="M708.132864 256.320512c0-109.694976-88.846336-198.513664-198.540288-198.513664-109.595648 0-198.573056 88.819712-198.573056 198.513664 0 109.56288 88.978432 198.50752 198.573056 198.50752C619.287552 454.829056 708.132864 365.883392 708.132864 256.320512z" p-id="4752" fill="#fafafa"></path><path d="M509.52704 486.59968 412.464128 568.067072 509.52704 865.828864 606.655488 568.067072Z" p-id="4753" fill="#fafafa"></path></svg>